<svg xmlns="http://www.w3.org/2000/svg" version="1.1" xmlns:xlink="http://www.w3.org/1999/xlink" xmlns:svgjs="http://svgjs.com/svgjs" width="1440" height="560" preserveAspectRatio="none" viewBox="0 0 1440 560"><g mask="url(&quot;#SvgjsMask1243&quot;)" fill="none"><rect width="1440" height="560" x="0" y="0" fill="rgba(255, 255, 255, 1)"></rect><circle r="8.865" cx="650.165" cy="46.215" filter="url(#SvgjsFilter1244)" fill="rgba(192, 30, 30, 0.58)"></circle><circle r="8.15" cx="10.540000000000001" cy="535.4399999999999" filter="url(#SvgjsFilter1244)" fill="rgba(192, 30, 30, 0.58)"></circle><circle r="5.56" cx="1274.46" cy="301.58" filter="url(#SvgjsFilter1244)" fill="rgba(192, 30, 30, 0.58)"></circle><circle r="7" cx="466.52" cy="328.91" filter="url(#SvgjsFilter1244)" fill="rgba(192, 30, 30, 0.58)"></circle><circle r="9.295" cx="1006.8449999999999" cy="520.135" filter="url(#SvgjsFilter1244)" fill="rgba(192, 30, 30, 0.58)"></circle><circle r="7.41" cx="953.24" cy="565.92" filter="url(#SvgjsFilter1244)" fill="rgba(192, 30, 30, 0.58)"></circle><circle r="5.25" cx="441.09" cy="126.3" filter="url(#SvgjsFilter1244)" fill="rgba(192, 30, 30, 0.58)"></circle><circle r="7.905" cx="1208.845" cy="436.73499999999996" filter="url(#SvgjsFilter1244)" fill="rgba(192, 30, 30, 0.58)"></circle><circle r="7.75" cx="1368.01" cy="428.31" filter="url(#SvgjsFilter1244)" fill="rgba(192, 30, 30, 0.58)"></circle><circle r="5.99" cx="1268.28" cy="25.910000000000004" filter="url(#SvgjsFilter1244)" fill="rgba(192, 30, 30, 0.58)"></circle><circle r="8.055" cx="1360.785" cy="138.055" filter="url(#SvgjsFilter1244)" fill="rgba(192, 30, 30, 0.58)"></circle><circle r="5.855" cx="268.83500000000004" cy="494.165" filter="url(#SvgjsFilter1244)" fill="rgba(192, 30, 30, 0.58)"></circle><circle r="5.485" cx="570.9250000000001" cy="495.815" filter="url(#SvgjsFilter1244)" fill="rgba(192, 30, 30, 0.58)"></circle><circle r="6.2" cx="1263.3500000000001" cy="339.89" filter="url(#SvgjsFilter1244)" fill="rgba(192, 30, 30, 0.58)"></circle><circle r="7.835" cx="109.345" cy="387.275" filter="url(#SvgjsFilter1244)" fill="rgba(192, 30, 30, 0.58)"></circle><circle r="7.9" cx="544.49" cy="408.2" filter="url(#SvgjsFilter1244)" fill="rgba(192, 30, 30, 0.58)"></circle><circle r="5.14" cx="434.59" cy="292.68" filter="url(#SvgjsFilter1244)" fill="rgba(192, 30, 30, 0.58)"></circle><circle r="8.975" cx="524.775" cy="388.77500000000003" filter="url(#SvgjsFilter1244)" fill="rgba(192, 30, 30, 0.58)"></circle><circle r="6.49" cx="1131.73" cy="40.88" filter="url(#SvgjsFilter1244)" fill="rgba(192, 30, 30, 0.58)"></circle><circle r="9.005" cx="594.775" cy="316.865" filter="url(#SvgjsFilter1244)" fill="rgba(192, 30, 30, 0.58)"></circle><path d="M997 297.3L947.1 279.7 940.4 266.7 958.7 239.7 973.6 240.5 1008.1 280.9C1008.6 281.3 1008.6 281.3 1009.2 281.6 1010.2 282.3 1011.6 282.5 1013.2 281.3 1014.3 279.7 1014.5 278.3 1013.3 276.7L983 241.5 1005.9 243.1 1019.5 258.5C1019.5 258.5 1020 258.8 1020 258.8 1021.1 259.5 1022.5 259.7 1024.1 258.5 1025.3 257.8 1025.4 255.5 1024.1 253.9L1015.7 243.5 1032.5 244.9C1034 245.1 1035.6 243.9 1036.1 241.9S1034.6 238.5 1032.6 238L1016.3 237 1026.1 228.2C1027.7 226.9 1027.7 224.6 1026.5 223 1025.5 222.3 1023.5 221.8 1021.9 223L1006.5 236.5 983.1 234.5 1018.3 204.3C1019.9 203.1 1020 200.8 1019.3 199.5 1017.7 198.4 1015.7 197.9 1014.1 199.1L974.2 233.9 958.8 232.7 945 204.1 953.6 191.3 1005.6 181C1007.3 180.6 1008.4 179 1008.1 177.2S1006.2 174.4 1004.4 174.7L958.7 183.9 972 164.3 991.5 160.6C993.3 160.3 994.4 158.7 994.4 156.4S992.5 153.5 990.7 153.8L977 156.9 986.7 142.6C987.8 141 986.9 138.9 985.3 137.8 983.7 136.7 982 137.1 980.9 138.7L971.2 153 968.6 139.6C968.7 137.3 967.1 136.3 964.9 137.1 963.2 137.5 962.1 139 962.4 140.8L966.2 160.4 952.9 180 944.5 134.1C944.2 132.3 942.1 130.9 940.3 131.2S937.4 133.2 937.8 134.9L947.8 187.4 939.2 200.1 906.9 197.5 900.6 184 918.3 134.1C918.8 132.1 917.6 130.5 916 129.4 914.1 128.9 912.4 130.1 911.4 131.7L896.3 175.6 886.3 154.9 893.2 135.6C893.8 133.7 892.5 132.1 891 131 889.5 130.8 887.4 131.7 886.9 133.6L882.3 146 874.8 130.9C874.1 129.6 872.2 129.1 870.4 129.4 868.8 130.6 868.2 132.6 868.9 133.8L876.4 149 863.2 144.6C861.7 144.4 859.6 145.3 859.4 146.7 858.3 148.3 859 149.5 860.6 150.6 860.6 150.6 861.1 151 861.1 151L880.4 157.9 890.4 178.6 846.5 163.5C844.5 162.9 842.8 163.3 842.2 165.2 841.7 167.2 842.4 168.4 843.4 169.1 844 169.5 844 169.5 844 169.5L894.8 186.9 901 200.5 882.7 227.5 868.2 226.1 832.8 185.9C832.1 184.6 829.8 184.6 828.6 185.3 826.9 186.6 826.9 188.9 828.2 190.5L858.4 225.7 835.5 224.1 822 208.7C820.7 207.1 818.8 206.5 817.7 208.1 816.1 209.4 816.1 211.7 816.8 212.9L826.1 223.1 809.3 221.7C807.5 222.1 805.9 223.3 805.3 225.2 805.5 226.1 806.2 227.4 807.2 228.1 807.8 228.5 807.8 228.5 808.7 228.3L825.5 229.7 815.3 239C813.7 240.2 814.1 242 814.8 243.3 815.3 243.6 815.3 243.6 815.8 244 816.9 244.7 818.3 244.9 819.5 244.2L834.9 230.6 857.8 232.3 822.6 262.5C821.5 264.1 821 266 822.5 267.1 822.7 268 822.7 268 823.2 268.4 824.3 269.1 826.1 268.7 827.3 268L867.6 232.7 882.1 234.1 896.4 263.1 888.2 275.3 835.7 285.3C833.9 285.7 832.5 287.8 832.8 289.6S835.3 292.8 837.1 292.4L882.8 283.2 869.8 302.3 849.9 306.6C848.1 306.9 847 308.5 847.4 310.3 847.7 312.1 849.3 313.1 851.1 312.8L864.4 310.2 854.7 324.5C854 325.6 854 327.9 855.6 329 857.2 330.1 859.8 329.5 860.5 328.5L870.3 314.2 872.8 327.5C873 328.4 873.1 329.3 873.7 329.7 874.7 330.4 875.6 330.2 876.5 330 878.3 329.7 879.4 328.1 879 326.3L875.6 306.3 888.6 287.2 896.9 333.1C897.1 333.9 897.6 334.3 898.7 335 899.2 335.4 899.7 335.7 900.6 335.6 902.4 335.2 903.8 333.1 903.5 331.3L894 279.2 902.2 267.1 934 269.3 941.2 282.7 923.2 333.1C923 334.5 923.3 336.3 924.4 337 924.9 337.4 924.9 337.4 925.3 336.8 926.9 337.9 929 337.1 929.5 335.1L944.6 291.2 955.1 312.2 948.2 331.5C948 333 948.7 334.2 949.8 334.9 949.8 334.9 950.3 335.3 950.3 335.3 951.9 336.4 954 335.5 954.6 333.5L959 320.3 966.5 335.4C966.6 336.3 967.2 336.7 967.7 337 968.8 337.7 970.2 337.9 970.5 337.4 972.7 336.5 973.2 334.6 972.9 332.8L965.4 317.7 977.8 322.2C979.7 322.7 981.8 321.9 982.4 319.9 982.6 318.5 981.7 316.4 980.3 316.2L961 309.3 951.1 288.6 995 303.7C996.9 304.2 998.5 303 999.6 301.4 999.8 300 998.9 297.9 997 297.3ZM950.8 238.9L936.7 259.5 934.6 262.7 930.9 262.5 906.6 260.7 902.3 260.1 900.7 256.8 890.1 234.8 888.5 231.4 890.7 228.3 904.7 207.6 906.9 204.4 910.6 204.7 934.9 206.5 938.6 206.7 940.7 210.4 951.4 232.3 952.9 235.7 950.8 238.9Z" fill="rgba(192, 30, 30, 0.58)"></path><path d="M1201.4 329.8L1194.3 314.6 1204.4 315C1205.5 315.2 1206.7 314.3 1207.1 312.8 1206.8 311.5 1205.9 310.3 1204.5 310.5L1191.9 309.6 1185.8 298 1212.2 300C1213.5 299.8 1214.7 298.8 1214.8 297.8 1214.8 296 1213.9 294.8 1212.6 295.1L1183.4 292.9 1174.7 274.9 1197.3 279.1 1184.9 259.7 1204.8 261 1217.9 287.1C1217.7 287.5 1218.1 287.8 1218.5 288.1 1219.3 288.6 1220.3 288.7 1221.2 288.2 1222.2 287.7 1222.6 286.2 1222.3 284.9L1210.4 261.3 1223.5 262.5 1229.1 273.9C1229.3 274.5 1229.7 274.8 1230.1 275.1 1230.5 275.3 1231.5 275.5 1232.5 274.9 1233.4 274.4 1233.8 272.9 1233.3 272L1229 262.8 1245.8 263.6C1247.3 264.1 1248.1 262.9 1248.5 261.4 1248.6 260.3 1247.7 259.1 1246 259.1L1229.5 257.9 1235.1 249.5C1235.9 248.3 1235.2 246.7 1234.4 246.2 1233.2 245.4 1231.9 245.6 1231.1 246.8L1223.9 257.6 1210.8 256.4 1225.3 234.8C1226.1 233.6 1225.8 232.3 1224.6 231.5 1223.8 231 1222.1 231 1221.3 232.2L1205.2 256.1 1185.3 254.8 1199.8 237.4 1177.2 238.4 1188.4 221.7 1217.2 223.6C1218.9 223.6 1219.7 222.4 1219.8 221.4 1220 220.3 1219.1 219.1 1217.6 218.7L1191.4 217.3 1198.6 206.5 1211.5 207.1C1213 207.5 1214.2 206.6 1214.2 204.8 1214.3 203.8 1213.4 202.6 1211.7 202.6L1201.8 201.7 1211.2 187.8C1212 186.6 1211.7 185.3 1210.5 184.5S1208 183.9 1207.2 185.1L1197.8 199.1 1193.3 190.3C1192.7 188.7 1191.2 188.3 1190.3 188.8 1188.7 189.5 1188.3 190.9 1189.2 192.1L1194.6 203.9 1187.4 214.6 1176.1 190.9C1175.2 189.7 1173.7 189.3 1172.8 189.8 1171.2 190.5 1170.8 191.9 1171.7 193.1L1184.4 219 1173.2 235.7 1165.6 214.4 1155 234.5 1146.2 216.5 1162.3 192.6C1163.1 191.4 1162.4 189.8 1161.6 189.2 1160.4 188.4 1159.1 188.7 1158.3 189.9L1143.6 211.8 1137.8 199.8 1145 189.1C1145.8 187.9 1145.5 186.5 1144.3 185.7 1143.5 185.2 1141.8 185.2 1141 186.4L1135.4 194.8 1128 180C1127.3 178.4 1125.9 178 1124.7 178.9 1123.7 179.4 1122.9 180.6 1123.8 181.8L1131 197 1120.9 196.6C1119.8 196.4 1118.6 197.4 1118.5 198.4 1118.3 199.5 1118.9 200.4 1119.3 200.7 1119.7 201 1120.1 201.2 1120.7 201.1L1133.4 202.1 1139.5 213.7 1113.1 211.6C1111.8 211.9 1110.6 212.8 1110.4 213.9 1110.3 214.9 1110.8 215.9 1111.6 216.4 1112 216.7 1112 216.7 1112.7 216.5L1141.8 218.7 1150.6 236.7 1128 232.5 1140.4 251.9 1120.4 250.6 1107.3 224.5C1106.8 223.6 1105.6 222.8 1104 223.4 1103.1 224 1102.7 225.4 1102.9 226.7L1114.9 250.3 1101.8 249.1 1096.1 237.8C1095.9 236.4 1094.4 236 1092.8 236.7 1091.9 237.2 1091.5 238.7 1091.7 240L1096.2 248.8 1079.5 248C1078 247.6 1077.2 248.8 1076.8 250.2 1076.9 250.9 1077.4 251.8 1077.8 252.1 1078.2 252.4 1078.6 252.6 1079.3 252.5L1095.8 253.8 1090.2 262.1C1089.4 263.3 1090.1 264.9 1090.8 265.5L1090.8 265.5C1092 266.3 1093.4 266 1094.2 264.8L1101.4 254 1114.4 255.3 1100 276.8C1099.2 278 1099.5 279.3 1100.7 280.1S1103.2 280.7 1104 279.5L1120 255.6 1140 256.8 1125.4 274.2 1148.1 273.2 1136.8 290 1108.1 288C1106.4 288 1105.6 289.2 1105.4 290.3 1105.3 291.3 1106.2 292.5 1107.7 292.9L1133.6 294.7 1126.7 305.1 1113.8 304.5C1112.3 304.1 1111.1 305.1 1111.1 306.8 1111 307.8 1111.9 309 1113.4 309.5L1123.5 309.9 1114.1 323.8C1113.3 325 1113.6 326.4 1114.8 327.2S1117.3 327.7 1118.1 326.5L1127.5 312.6 1132 321.4C1132.1 322 1132.5 322.3 1132.9 322.6 1133.7 323.1 1134.3 323 1135 322.8 1136.6 322.2 1137 320.7 1136.1 319.5L1130.7 307.8 1137.9 297 1149.1 320.7C1149.5 321 1149.9 321.3 1150.3 321.5 1151.1 322.1 1151.8 321.9 1152.5 321.8 1154.1 321.2 1154.5 319.7 1153.5 318.5L1140.8 292.6 1152.1 275.9 1159.7 297.2 1170.3 277.1 1179 295.1 1163 319.1C1162.2 320.2 1162.8 321.8 1163.6 322.4 1164.8 323.2 1166.2 322.9 1167 321.7L1181.4 300.2 1187.5 311.8 1180.3 322.6C1179.5 323.8 1179.7 325.1 1180.9 325.9S1183.5 326.4 1184.3 325.2L1189.9 316.9 1197.3 331.7C1197.4 332.3 1197.8 332.6 1198.2 332.9 1198.6 333.1 1199.7 333.3 1200.6 332.7 1201.5 332.2 1202.3 331 1201.4 329.8ZM1160.5 285.6L1154.3 268.2 1135.8 269 1147.9 254.6 1137.9 239.2 1156.2 242.2 1164.7 226 1170.9 243.5 1189.4 242.6 1177.7 256.7 1187.3 272.4 1169.4 269 1160.5 285.6Z" fill="rgba(192, 30, 30, 0.58)"></path><path d="M413.6 142.1L408.9 116 412.9 109.9 429.2 111.2 432.5 117.8 423.5 142.8C423.5 143.1 423.5 143.1 423.5 143.5 423.4 144.1 423.7 144.8 424.6 145.2 425.6 145.2 426.3 145 426.7 144L434.4 122.2 439.4 132.5 436.1 142.2C436.1 142.2 436.1 142.5 436.1 142.5 436 143.1 436.3 143.8 437.2 144.2 437.8 144.6 438.9 144 439.2 143.1L441.6 136.8 445.2 144.5C445.5 145.1 446.4 145.5 447.4 145.3S448.5 143.8 448.3 142.8L444.6 135.4 450.9 137.5C451.8 137.9 452.8 137.4 453.2 136.4 453.3 135.8 453 134.8 452.1 134.4L442.4 131.1 437.4 120.5 459.3 128.2C460.2 128.6 461.3 128 461.6 127.4 461.7 126.5 461.4 125.5 460.5 125.1L435.5 116.5 432.2 109.5 441.2 96.4 448.9 96.9 466.3 116.9C466.9 117.6 467.8 117.6 468.5 117S469.3 115.5 468.7 114.8L453.3 97.3 465.1 98.2 471.6 105.7C472.2 106.4 473.2 106.5 474.2 105.9S474.9 104.4 474.3 103.7L469.6 98.5 478.2 99.2C479.2 99.2 479.9 98.3 480 97.4 480 96.4 479.4 95.7 478.5 95.7L469.9 95 475 90.6C476 90 476.1 89.1 475.2 88.4 474.6 87.7 473.6 87.6 473 88.2L465.4 94.7 453.6 93.8 471.4 78.8C472.1 78.2 472.2 76.9 471.6 76.2S470.1 75.4 469.4 76L449.1 93.4 441.5 92.8 434.6 78.2 438.9 72.1 464.9 67.4C465.9 67.1 466.3 66.2 466.4 65.2 466.1 64.2 465.2 63.8 464.2 63.8L441.4 68.1 447.9 58.7 458 56.9C459 56.6 459.4 55.7 459.5 54.7 459.2 54.1 458.3 53.4 457.3 53.6L450.8 54.7 455.5 47.7C455.9 47.1 455.6 46.1 455 45.4 454.1 45 453.1 45.3 452.8 45.9L448 52.9 446.6 46.1C446.4 45.4 445.5 44.7 444.8 45 443.8 44.9 443.5 45.5 443.4 46.5 443.4 46.5 443.4 46.8 443.4 46.8L445.2 56.9 438.7 66.3 434.3 43.5C434.1 42.5 433.5 41.8 432.5 42.1 431.5 42.3 431.2 43 431.1 43.6 431.1 43.9 431.1 43.9 431.1 43.9L436.1 70.3 431.8 76.4 415.5 75.1 412.5 68.5 421.2 43.2C421.6 42.5 421 41.5 420.4 41.2 419.4 40.8 418.4 41.3 418 42.3L410.3 64.1 405.3 53.8 408.6 44.1C409 43.2 408.7 42.2 407.8 42.1 406.9 41.7 405.8 42.3 405.5 42.9L403.4 49.5 399.8 41.8C399.2 41.2 398.3 40.8 397.3 41 396.9 41.3 396.6 41.9 396.5 42.6 396.5 42.9 396.5 42.9 396.8 43.2L400.4 50.9 393.8 48.8C392.9 48.4 392.2 49 391.8 49.6 391.8 49.9 391.8 49.9 391.8 50.2 391.7 50.9 392 51.5 392.6 51.9L402.3 55.2 407.3 65.5 385.4 57.8C384.5 57.7 383.5 57.9 383.4 58.9 383.1 59.2 383.1 59.2 383 59.5 383 60.1 383.6 60.8 384.2 61.2L409.5 69.9 412.5 76.5 403.5 89.9 396.2 89.4 378.8 69.1C378.2 68.4 376.9 68.3 376.2 68.9S375.4 70.8 376 71.5L391.4 89 379.9 88.1 373.1 80.6C372.5 79.9 371.5 79.8 370.9 80.4 370.2 81 370.1 81.9 370.7 82.6L375.1 87.8 366.5 87.1C365.8 87.1 364.8 87.6 364.8 88.6 364.7 89.6 365.6 90.6 366.2 90.6L374.8 91.3 369.7 95.7C369.3 96 369 96.3 369 96.6 368.9 97.3 369.2 97.6 369.5 97.9 370.1 98.6 371.1 98.7 371.7 98.1L379.6 91.7 391.1 92.5 373.3 107.5C372.9 107.8 372.9 108.2 372.9 108.8 372.8 109.1 372.8 109.4 373.1 109.8 373.7 110.5 375 110.6 375.7 110L395.9 92.9 403.2 93.5 410.2 107.8 406.1 114.2 379.8 118.9C379.1 119.2 378.4 119.8 378.4 120.4 378.4 120.8 378.4 120.8 378.7 120.8 378.6 121.7 379.5 122.5 380.5 122.2L403.3 117.9 396.8 127.6 386.7 129.4C386 129.7 385.7 130.3 385.6 130.9 385.6 130.9 385.6 131.3 385.6 131.3 385.5 132.2 386.4 132.9 387.4 132.7L394.3 131.3 389.5 138.3C389.2 138.6 389.2 138.9 389.2 139.2 389.1 139.9 389.4 140.5 389.7 140.6 390.6 141.3 391.6 141 392.3 140.4L397 133.4 398.1 139.9C398.3 140.9 399.2 141.6 400.2 141.4 400.9 141.1 401.6 140.2 401.3 139.5L399.5 129.4 406 120 410.4 142.8C410.6 143.8 411.6 144.2 412.5 144.2 413.2 144 413.9 143.1 413.6 142.1ZM427.5 107.5L415.1 106.6 413.2 106.4 412.3 104.7 407.1 93.7 406.3 91.8 407.3 90.2 414.2 80.2 415.3 78.6 417.2 78.8 429.6 79.7 431.5 79.9 432.4 81.6 437.6 92.5 438.5 94.2 437.4 96.1 430.5 106.1 429.4 107.6 427.5 107.5Z" fill="rgba(192, 30, 30, 0.58)"></path><path d="M287.8 456.5L292.8 403.8 303.8 394.2 334.5 405.4 337.3 420.1 306.4 463.3C306.2 463.9 306.2 463.9 306 464.5 305.5 465.7 305.7 467.1 307.3 468.4 309.1 469.1 310.5 468.9 311.8 467.3L338.6 429.5 342.6 452 330.9 468.9C330.9 468.9 330.7 469.5 330.7 469.5 330.3 470.7 330.4 472.1 332 473.4 333 474.4 335.2 473.9 336.5 472.3L344.5 461.6 347.3 478.3C347.4 479.7 349 481 351 481S353.9 478.7 354 476.7L351 460.6 361.9 468C363.5 469.3 365.8 468.7 367 467.1 367.5 465.9 367.5 463.9 366 462.7L349.1 451 345.3 427.8 383.2 454.7C384.8 455.9 387 455.4 388.1 454.4 388.7 452.6 388.8 450.6 387.2 449.3L343.8 419.1 341.2 403.8 365.7 383.5 380.1 388.8 402.8 436.6C403.5 438.3 405.3 438.9 407 438.2S409.3 435.6 408.5 434L388.5 391.9 410.7 400 419.1 418.1C419.9 419.7 421.7 420.4 423.9 419.8S426.2 417.3 425.5 415.6L419.2 403.1 435.4 409C437.2 409.7 439 408.3 439.7 406.5 440.4 404.7 439.6 403.1 437.8 402.4L421.6 396.5 433.9 390.8C436.1 390.2 436.8 388.4 435.4 386.6 434.7 384.9 432.9 384.3 431.2 385L413.2 393.4 390.9 385.2 433.4 366.1C435.1 365.3 435.9 362.9 435.2 361.3S432.6 359 431 359.7L382.5 382.2 368.1 376.9 362.8 344.9 374.4 335.6 427.1 340.6C429.1 340.6 430.4 339 431 337.2 431.1 335.2 429.5 334 427.7 333.3L381.5 329.3 399.1 314.6 419.5 316.7C421.5 316.7 422.8 315.1 423.4 313.3 423.3 311.9 421.9 310 419.9 310L406.8 308.6 419.7 297.6C420.7 296.6 420.8 294.6 420 293 418.4 291.7 416.4 291.7 415.4 292.6L402.5 303.6 403.5 289.6C403.3 288.2 402 286.4 400.6 286.5 398.8 285.9 397.7 286.8 397.1 288.6 397.1 288.6 396.8 289.2 396.8 289.2L394.8 309.6 377.2 324.3 381.2 278.1C381.2 276 380.5 274.4 378.4 274.3 376.4 274.3 375.4 275.2 374.9 276.4 374.7 277 374.7 277 374.7 277L370.1 330.6 358.5 339.9 327.8 328.7 325.6 314.3 356.1 270.2C357.1 269.2 356.6 267 355.6 266 354 264.7 351.8 265.2 350.5 266.8L323.7 304.7 319.7 282.1 331.3 265.2C332.6 263.6 332.7 261.6 330.9 261 329.3 259.7 327 260.2 326 261.2L318.4 272.7 315.6 256.1C314.9 254.4 313.3 253.2 311.2 253.1 310.4 253.5 309.4 254.5 308.9 255.7 308.7 256.3 308.7 256.3 309.1 257.1L311.8 273.8 300.3 266.1C298.7 264.9 297.1 265.6 296.1 266.6 295.8 267.2 295.8 267.2 295.6 267.8 295.2 269 295.3 270.4 296.3 271.5L313.2 283.1 317.2 305.7 279.3 278.9C277.5 278.2 275.5 278.1 274.8 279.9 274 280.3 274 280.3 273.8 280.9 273.3 282.1 274.1 283.8 275.1 284.8L319.1 315.3 321.3 329.7 296.6 350.7 282.8 345.6 260.3 297.1C259.6 295.5 257.2 294.6 255.5 295.4S253 298.5 253.8 300.2L273.8 342.3 252.1 334.3 243.2 316.1C242.4 314.4 240.6 313.8 239 314.5 237.3 315.3 236.7 317.1 237.4 318.7L243.1 331 226.9 325.1C225.7 324.6 223.5 325.2 222.8 327 222.1 328.8 223.3 331.3 224.5 331.7L240.7 337.6 228.4 343.4C227.6 343.7 226.7 344.1 226.5 344.7 226.1 345.9 226.5 346.7 226.8 347.6 227.6 349.2 229.4 349.9 231 349.1L249.7 341 271.3 348.9 228.9 368.1C228 368.5 227.8 369.1 227.4 370.3 227.2 370.9 226.9 371.5 227.3 372.3 228.1 373.9 230.5 374.8 232.1 374L280.4 352.2 294.2 357.3 299.7 388.6 288.5 398.8 235.2 393.6C233.8 393.7 232.1 394.5 231.7 395.7 231.5 396.3 231.5 396.3 232.1 396.5 231.4 398.3 232.8 400.2 234.8 400.2L281 404.2 263.2 419.5 242.8 417.5C241.4 417.6 240.3 418.6 239.9 419.8 239.9 419.8 239.7 420.4 239.7 420.4 239 422.2 240.4 424.1 242.4 424.2L256.3 425.2 243.4 436.1C242.6 436.5 242.4 437.1 242.2 437.7 241.7 438.9 241.9 440.3 242.5 440.6 243.9 442.4 245.9 442.5 247.5 441.7L260.4 430.8 259 443.9C258.9 445.9 260.3 447.8 262.3 447.8 263.7 447.7 265.6 446.3 265.4 444.9L267.5 424.5 285.1 409.8 281.1 456.1C281.1 458.1 282.6 459.4 284.4 460 285.9 459.9 287.7 458.5 287.8 456.5ZM333.3 397.5L309.8 388.9 306.2 387.6 305.5 383.9 301.4 359.9 300.9 355.6 303.8 353.3 322.5 337.7 325.4 335.3 329 336.6 352.4 345.2 356 346.5 356.7 350.2 360.9 374.2 361.6 377.9 358.5 380.8 339.8 396.5 336.9 398.8 333.3 397.5Z" fill="rgba(192, 30, 30, 0.58)"></path><path d="M565.6 359.1L573.6 344.3 579.2 352.7C579.7 353.7 581.2 354.1 582.6 353.6 583.5 352.6 584 351.1 583 350.2L576.3 339.4 582 327.7 595.9 350.1C596.9 351.1 598.4 351.5 599.3 351 600.7 349.9 601.1 348.5 600.1 347.6L584.7 322.7 594.1 305.1 604.1 325.8 612.3 304.3 623.1 321.2 609.7 347.2C609.3 347.2 609.3 347.7 609.3 348.2 609.3 349.1 609.9 350.1 610.8 350.5 611.8 350.9 613.2 350.4 614.2 349.4L626.2 325.8 632.9 337.1 627.1 348.4C626.6 348.9 626.6 349.4 626.7 349.8 626.7 350.3 627.2 351.3 628.2 351.7 629.2 352.1 630.6 351.6 631 350.6L635.9 341.8 645.2 355.8C645.7 357.2 647.1 357.2 648.6 356.6 649.5 356.1 649.9 354.7 648.9 353.3L640.2 339.2 650.2 338.8C651.7 338.7 652.6 337.3 652.5 336.3 652.5 334.9 651.5 333.9 650 334L637.1 334.5 630.4 323.3 656.3 322.2C657.7 322.2 658.6 321.2 658.6 319.7 658.5 318.8 657.5 317.4 656.1 317.4L627.3 318.6 616.5 301.7 639.2 303.2 625 285.5 645.1 284.7 660.5 309.1C661.6 310.5 663 310.4 663.9 309.9 664.9 309.4 665.3 307.9 664.8 306.5L650.4 284.5 663.4 284 670.5 294.7C671.1 296.2 672.5 296.6 673.9 295.6 674.9 295 675.3 293.6 674.3 292.2L669.1 283.7 685.9 283.1C687.3 283 688.3 282 688.2 280.6S687.2 278.2 685.7 278.3L668.9 278.9 673.4 270.1C674.3 268.6 673.7 267.2 672.8 266.8 671.3 265.9 669.9 266.4 669.4 267.9L663.2 279.2 650.2 279.7 662.7 256.6C663.1 255.2 662.6 253.7 661.6 253.3 660.2 252.4 658.7 252.9 658.3 254.4L644.9 279.9 624.8 280.7 637.5 262 615 265.3 624.4 247.6 653.2 246.4C654.6 246.4 655.5 244.9 655.5 243.9 655.4 242.5 654.4 241.6 653 241.6L626.6 242.7 632.9 230.9 645.8 230.4C647.2 230.3 648.2 229.3 648.1 227.9 648.1 227 647 225.6 645.6 225.6L635.5 226 643.1 211.3C644 209.8 643.5 208.4 642 208 641 207.5 639.6 207.6 639.2 209.1L631.1 223.8 625.5 215.4C625 214.4 623.5 214 622.6 214.5 621.6 215.1 621.2 216 621.2 216.5 621.2 217 621.3 217.5 621.8 217.9L628.4 228.7 622.7 240.5 608.8 218C607.8 217.1 606.3 216.6 605.4 217.2 604.5 217.7 604 218.7 604 219.6 604.1 220.1 604.1 220.1 604.6 220.6L620 245.4 610.6 263.1 600.7 242.3 592.4 263.8 581.6 247 595 221C595.4 220 595.4 218.5 593.9 217.6 592.9 217.2 591.5 217.7 590.6 218.7L578.6 242.3 571.8 231 577.6 219.7C578.6 218.7 578 217.3 576.5 216.4 575.6 216 574.1 216.5 573.2 217.5L568.8 226.3 559.6 212.3C559 210.9 557.6 211 556.2 211.5 555.7 212 555.3 213 555.3 213.4 555.3 213.9 555.3 214.4 555.8 214.9L564.6 228.9 554.5 229.3C553 229.4 552.1 230.9 552.2 231.8L552.2 231.8C552.2 233.3 553.2 234.2 554.7 234.1L567.6 233.6 574.3 244.9 548.4 245.9C547 246 546.1 247 546.1 248.4S547.2 250.8 548.6 250.7L577.4 249.5 588.2 266.4 565.5 264.9 579.7 282.6 559.6 283.4 544.2 259.1C543.2 257.7 541.7 257.7 540.8 258.2 539.8 258.8 539.4 260.2 540 261.6L553.8 283.6 541.4 284.2 534.2 273.4C533.6 272 532.2 271.6 530.8 272.6 529.9 273.1 529.4 274.6 530 276L535.6 284.4 518.8 285.1C517.4 285.1 516.5 286.1 516.5 287.6S517.6 289.9 519 289.9L535.8 289.2 531.3 298C530.9 298.5 530.9 299 530.9 299.5 531 300.4 531.5 300.9 532 301.4 533.4 302.3 534.9 301.7 535.3 300.3L541.5 289 554.5 288.4 542 311.5C542 312 542 312.5 542 313 542.1 313.9 542.6 314.4 543.1 314.8 544.6 315.7 546 315.2 546.4 313.7L559.8 288.2 579.9 287.4 567.2 306.2 589.7 302.8 580.3 320.5 551.5 321.7C550.1 321.8 549.2 323.2 549.2 324.2 549.3 325.6 550.3 326.5 551.7 326.5L577.6 325.4 571.9 337.2 558.9 337.7C557.5 337.8 556.6 338.8 556.6 340.2S557.7 342.6 559.1 342.5L569.2 342.1 561.6 356.8C561.2 357.3 561.2 357.8 561.2 358.3 561.2 358.8 561.7 359.7 562.7 360.1 563.7 360.6 565.1 360.5 565.6 359.1ZM577.1 300L587.5 284.7 575.9 270.3 594.6 271.4 601.1 254.3 609.5 270.8 627.6 268.1 617.2 283.5 628.9 297.9 610.6 296.7 603.6 313.8 595.7 297.3 577.1 300Z" fill="rgba(192, 30, 30, 0.58)"></path><path d="M1336.3 436.4L1347.3 438.5 1343.1 443.8C1342.6 444.3 1342.7 445.3 1343.3 446.1 1344.1 446.5 1345.1 446.5 1345.5 445.7L1351 439.2 1359.6 440.5 1348.2 453.9C1347.8 454.7 1347.8 455.7 1348.4 456.2 1349.3 456.9 1350.3 456.9 1350.7 456L1363.3 441.2 1376.4 443.5 1365.3 454.1 1380.6 454.9 1372.1 465.2 1352.9 462C1352.8 461.7 1352.5 461.9 1352.2 462 1351.6 462.2 1351.1 462.7 1351 463.4 1350.9 464.1 1351.6 464.9 1352.4 465.3L1369.8 468.1 1364 474.7 1355.7 473.3C1355.3 473.1 1355 473.2 1354.7 473.3 1354.4 473.4 1353.9 474 1353.8 474.7 1353.7 475.4 1354.4 476.2 1355.1 476.2L1361.7 477.6 1354.7 486.3C1353.9 486.9 1354.2 487.8 1354.8 488.6 1355.4 489.1 1356.4 489.1 1357.1 488.1L1364.2 479.7 1366.5 486C1366.8 486.9 1368 487.2 1368.6 487 1369.5 486.6 1369.8 485.8 1369.5 484.9L1366.5 476.8 1372.3 470.2 1378.3 486.5C1378.6 487.4 1379.4 487.7 1380.3 487.4 1380.9 487.2 1381.6 486.3 1381.3 485.4L1374.6 467.3 1383.1 457.1 1386.8 471.7 1395.1 459.1 1399.8 471.7 1387.5 486.5C1386.8 487.4 1387.1 488.3 1387.6 488.8 1388.2 489.3 1389.2 489.3 1390 488.6L1401 475 1404 483.1 1398.6 489.9C1397.8 490.5 1397.9 491.5 1398.8 492.2 1399.3 492.7 1400.3 492.7 1401 491.7L1405.3 486.7 1409.2 497.3C1409.5 498.2 1410.3 498.5 1411.2 498.2S1412.5 497 1412.2 496.1L1408.3 485.6 1414.8 486.6C1415.9 486.9 1416.7 486.3 1416.8 485.6 1417.1 484.5 1416.4 483.7 1415.4 483.7L1407 482 1404 473.9 1421.2 477.1C1422.2 477.1 1423 476.5 1423.1 475.8 1423.4 474.6 1422.7 473.8 1421.7 473.9L1402.8 470.6 1398.1 458 1412.6 462.2 1405.9 448.7 1419.1 451 1425.7 469C1426 469.9 1427.2 470.2 1427.8 469.9 1428.7 469.6 1429 468.8 1428.7 467.9L1422.6 451.4 1431.4 452.9 1434.4 461C1434.7 461.9 1435.5 462.3 1436.4 462 1437 461.8 1437.7 460.8 1437.4 459.9L1435.1 453.6 1445.9 455.4C1447.1 455.7 1447.9 455 1447.8 454 1447.9 453.3 1447.6 452.4 1446.6 452.5L1435.6 450.4 1439.7 445.1C1440.2 444.6 1440.2 443.5 1439.7 443.1 1439.2 442.6 1438.5 442.5 1438.2 442.6 1437.9 442.7 1437.6 442.8 1437.4 443.2L1431.9 449.7 1423.2 448.4 1434.7 435C1435.1 434.2 1435 433.2 1434.5 432.7 1434 432.2 1433.3 432.1 1432.7 432.3 1432.4 432.4 1432.4 432.4 1432.2 432.9L1419.6 447.7 1406.4 445.4 1417.6 434.8 1402.2 434 1410.7 423.7 1430 426.9C1430.7 426.9 1431.6 426.6 1431.9 425.5 1431.9 424.8 1431.3 424 1430.5 423.6L1413.1 420.8 1418.8 414.2 1427.2 415.6C1428 416 1428.8 415.3 1429.1 414.2 1429.2 413.5 1428.5 412.7 1427.7 412.3L1421.2 411.3 1428.2 402.6C1429 402 1428.7 401.1 1428 400.3 1427.6 400.1 1426.9 400 1426.6 400.1 1426.3 400.2 1426 400.3 1425.8 400.8L1418.7 409.2 1416.4 402.9C1416 402 1414.9 401.7 1414.3 401.9L1414.3 401.9C1413.4 402.3 1413 403.1 1413.4 404L1416.4 412.1 1410.6 418.6 1404.6 402.4C1404.3 401.5 1403.5 401.1 1402.6 401.5S1401.3 402.6 1401.6 403.5L1408.2 421.6 1399.8 431.8 1396.1 417.2 1387.7 429.8 1383.1 417.2 1395.4 402.4C1396.1 401.5 1395.7 400.6 1395.2 400.1 1394.7 399.6 1393.7 399.6 1392.9 400.3L1381.8 413.6 1378.9 405.8 1384.3 399C1385 398.4 1385 397.4 1384.1 396.7 1383.6 396.2 1382.6 396.2 1381.8 396.9L1377.6 402.2 1373.7 391.6C1373.4 390.7 1372.5 390.4 1371.6 390.7S1370.4 391.8 1370.7 392.7L1374.6 403.3 1368.1 402.2C1367.6 402.1 1367.3 402.2 1367 402.3 1366.4 402.5 1366.3 402.9 1366.1 403.3 1365.8 404.4 1366.4 405.2 1367.4 405.2L1375.9 406.9 1378.9 415 1361.7 411.8C1361.4 411.9 1361.1 412 1360.8 412.1 1360.2 412.3 1360 412.7 1359.8 413.1 1359.5 414.3 1360.2 415 1361.2 415L1380.1 418.3 1384.7 430.9 1370.2 426.7 1376.9 440.2 1363.8 437.9 1357.2 419.9C1356.8 419 1355.7 418.7 1355.1 418.9 1354.2 419.3 1353.8 420.1 1354.2 421L1360.1 437.2 1351.5 436 1348.5 427.9C1348.2 427 1347.3 426.6 1346.4 426.9S1345.2 428.1 1345.5 429L1347.8 435.3 1336.9 433.5C1336.5 433.3 1336.2 433.4 1335.9 433.5 1335.6 433.6 1335.1 434.1 1335.1 434.9 1335 435.6 1335.3 436.5 1336.3 436.4ZM1376.2 431.7L1388 435.1 1394.8 424.8 1397.9 437 1410.1 437.6 1401.3 446.3 1406.7 457.2 1394.9 453.8 1388.1 464.1 1385.1 452.2 1372.8 451.3 1381.7 442.9 1376.2 431.7Z" fill="rgba(192, 30, 30, 0.58)"></path><path d="M1057.1 386.6L1059.7 412.9 1055.2 418.7 1039.1 416.1 1036.3 409.2 1047.3 385C1047.4 384.7 1047.4 384.7 1047.4 384.4 1047.5 383.8 1047.3 383.1 1046.4 382.6 1045.5 382.5 1044.8 382.7 1044.3 383.6L1034.8 404.7 1030.6 394 1034.8 384.6C1034.8 384.6 1034.8 384.3 1034.8 384.3 1034.9 383.7 1034.7 383 1033.8 382.5 1033.2 382.1 1032.2 382.6 1031.7 383.5L1028.8 389.5 1025.8 381.6C1025.6 380.9 1024.7 380.4 1023.7 380.6S1022.5 382 1022.7 383L1025.7 390.6 1019.6 388C1018.7 387.6 1017.7 388 1017.2 388.9 1017.1 389.6 1017.3 390.6 1018.2 391L1027.5 395.1 1031.6 406.2 1010.5 396.6C1009.6 396.1 1008.5 396.6 1008.1 397.2 1007.9 398.1 1008.1 399.1 1009 399.6L1033.2 410.3 1035.9 417.5 1025.9 429.9 1018.3 428.6 1002.6 407.3C1002 406.6 1001.1 406.4 1000.4 407S999.5 408.4 1000 409.2L1013.8 427.9 1002.2 426.1 996.3 418C995.8 417.2 994.8 417.1 993.8 417.6S992.9 419.1 993.4 419.8L997.7 425.3 989.2 424C988.3 423.8 987.5 424.7 987.3 425.6 987.2 426.6 987.7 427.3 988.6 427.4L997.2 428.8 991.7 432.8C990.6 433.3 990.5 434.2 991.3 435 991.8 435.7 992.8 435.9 993.5 435.4L1001.6 429.5 1013.3 431.4 994.3 444.9C993.5 445.4 993.3 446.7 993.9 447.4S995.3 448.3 996.1 447.8L1017.7 432.1 1025.3 433.3 1031 448.5 1026.1 454.2 999.8 456.8C998.8 457 998.3 457.8 998.2 458.8 998.3 459.8 999.2 460.3 1000.2 460.4L1023.3 458 1016 466.9 1005.8 467.8C1004.8 468 1004.3 468.9 1004.2 469.8 1004.4 470.5 1005.3 471.3 1006.2 471.1L1012.8 470.6 1007.5 477.2C1007.1 477.7 1007.3 478.7 1007.8 479.5 1008.7 479.9 1009.7 479.8 1010.1 479.2L1015.4 472.6 1016.2 479.5C1016.5 480.2 1017.3 481 1018 480.8 1018.9 480.9 1019.3 480.4 1019.5 479.4 1019.5 479.4 1019.6 479.1 1019.6 479.1L1018.6 468.9 1025.9 460 1028.3 483.1C1028.5 484.1 1029 484.8 1030 484.7 1031 484.5 1031.4 483.9 1031.5 483.3 1031.6 483 1031.6 483 1031.6 483L1028.7 456.3 1033.5 450.5 1049.7 453.1 1052.1 460 1041.4 484.5C1040.9 485.1 1041.4 486.2 1042 486.6 1042.9 487.1 1044 486.6 1044.4 485.7L1054 464.5 1058.1 475.2 1054 484.6C1053.5 485.5 1053.7 486.5 1054.6 486.7 1055.5 487.1 1056.6 486.7 1057 486.1L1059.6 479.7 1062.6 487.6C1063.1 488.4 1064 488.8 1065 488.7 1065.4 488.4 1065.8 487.8 1065.9 487.2 1065.9 486.9 1065.9 486.9 1065.7 486.5L1062.7 478.6 1069.1 481.2C1070 481.7 1070.8 481.2 1071.2 480.6 1071.2 480.3 1071.2 480.3 1071.3 480 1071.4 479.3 1071.2 478.6 1070.6 478.2L1061.2 474.1 1057.1 463.4 1078.2 473C1079.2 473.1 1080.2 473 1080.3 472 1080.7 471.7 1080.7 471.7 1080.7 471.4 1080.8 470.8 1080.3 470.1 1079.7 469.6L1055.2 458.9 1052.8 452 1062.9 439.4 1070.2 440.6 1085.8 462.2C1086.3 462.9 1087.6 463.1 1088.3 462.6S1089.3 460.8 1088.7 460.1L1074.9 441.3 1086.3 443.1 1092.4 451.3C1092.9 452 1093.9 452.2 1094.6 451.6 1095.4 451.1 1095.5 450.1 1095 449.4L1091 443.9 1099.5 445.3C1100.2 445.4 1101.2 444.9 1101.4 444 1101.5 443 1100.7 441.9 1100.1 441.8L1091.6 440.4 1097.1 436.5C1097.4 436.2 1097.8 435.9 1097.9 435.6 1098 435 1097.7 434.6 1097.4 434.2 1096.9 433.5 1095.9 433.4 1095.2 433.9L1086.8 439.7 1075.5 437.8 1094.5 424.4C1094.8 424.1 1094.9 423.8 1095 423.2 1095 422.8 1095.1 422.5 1094.8 422.2 1094.3 421.4 1093 421.2 1092.3 421.8L1070.7 437.1 1063.4 435.9 1057.7 421.1 1062.3 415 1088.9 412.5C1089.6 412.2 1090.4 411.7 1090.5 411.1 1090.5 410.8 1090.5 410.8 1090.2 410.7 1090.3 409.8 1089.5 409 1088.5 409.2L1065.4 411.6 1072.7 402.4 1082.9 401.4C1083.6 401.2 1084 400.7 1084.1 400 1084.1 400 1084.2 399.7 1084.2 399.7 1084.3 398.8 1083.5 398 1082.5 398.1L1075.5 399 1080.8 392.4C1081.2 392.1 1081.2 391.8 1081.3 391.5 1081.4 390.8 1081.2 390.1 1080.9 390.1 1080 389.3 1079 389.5 1078.3 390L1073 396.6 1072.4 390C1072.3 389 1071.4 388.3 1070.4 388.4 1069.8 388.6 1069 389.5 1069.2 390.2L1070.1 400.4 1062.9 409.2 1060.4 386.2C1060.3 385.2 1059.4 384.7 1058.4 384.5 1057.7 384.8 1057 385.6 1057.1 386.6ZM1040.4 419.9L1052.7 421.9 1054.6 422.2 1055.3 423.9 1059.7 435.3 1060.3 437.4 1059.1 438.8 1051.4 448.2 1050.2 449.7 1048.3 449.4 1036 447.4 1034.1 447.1 1033.4 445.3 1029.1 433.9 1028.4 432.2 1029.6 430.5 1037.3 421 1038.5 419.6 1040.4 419.9Z" fill="rgba(192, 30, 30, 0.58)"></path><path d="M827.9 514.9L833.4 505.1 837.1 510.8C837.4 511.4 838.4 511.7 839.3 511.4 839.9 510.7 840.2 509.7 839.6 509.1L835.2 501.9 839.2 494.1 848.2 509.2C848.9 509.8 849.9 510.1 850.5 509.8 851.4 509.1 851.7 508.1 851.1 507.5L841 490.8 847.4 479.1 853.9 493 859.6 478.8 866.6 490.1 857.5 507.3C857.1 507.4 857.1 507.7 857.2 508 857.2 508.6 857.5 509.3 858.2 509.6 858.8 509.9 859.8 509.5 860.4 508.9L868.6 493.3 873 500.8 869 508.3C868.7 508.6 868.7 509 868.7 509.3 868.7 509.6 869.1 510.2 869.7 510.5 870.4 510.8 871.3 510.5 871.6 509.8L875 504 881 513.4C881.3 514.4 882.3 514.4 883.3 514 883.9 513.7 884.2 512.7 883.5 511.8L877.8 502.3 884.5 502.1C885.5 502.1 886.1 501.1 886.1 500.5 886.1 499.5 885.4 498.9 884.4 498.9L875.8 499.2 871.4 491.6 888.7 491.1C889.7 491.1 890.3 490.5 890.3 489.5 890.3 488.9 889.6 487.9 888.6 487.9L869.4 488.5 862.4 477.1 877.5 478.3 868.2 466.4 881.6 466 891.7 482.4C892.3 483.4 893.3 483.3 893.9 483 894.6 482.7 894.9 481.7 894.5 480.7L885.2 465.9 893.8 465.7 898.5 472.9C898.8 473.9 899.8 474.2 900.7 473.5 901.4 473.2 901.6 472.2 901 471.3L897.6 465.6 908.8 465.3C909.8 465.3 910.4 464.6 910.4 463.7S909.7 462.1 908.7 462.1L897.5 462.4 900.6 456.6C901.2 455.6 900.9 454.6 900.2 454.3 899.2 453.7 898.3 454.1 898 455L893.7 462.5 885.1 462.7 893.6 447.5C893.9 446.5 893.6 445.5 892.9 445.2 891.9 444.6 891 445 890.7 445.9L881.5 462.8 868.1 463.2 876.7 450.8 861.7 452.8 868.2 441.1 887.3 440.6C888.3 440.6 888.9 439.6 888.9 439 888.9 438 888.2 437.4 887.3 437.4L869.7 437.9 873.9 430.1 882.6 429.8C883.5 429.8 884.2 429.2 884.1 428.2 884.1 427.6 883.4 426.6 882.5 426.6L875.8 426.8 880.9 417.1C881.6 416.1 881.2 415.1 880.2 414.9 879.6 414.6 878.6 414.6 878.3 415.5L872.8 425.3 869.2 419.6C868.8 419 867.9 418.7 867.2 419 866.6 419.4 866.3 420 866.3 420.4 866.3 420.7 866.3 421 866.7 421.3L871 428.6 867.1 436.3 858 421.2C857.4 420.6 856.4 420.3 855.8 420.6 855.1 421 854.8 421.6 854.8 422.3 854.8 422.6 854.8 422.6 855.2 422.9L865.2 439.6 858.8 451.3 852.4 437.4 846.7 451.6 839.6 440.3 848.8 423.1C849.1 422.4 849.1 421.5 848.1 420.8 847.4 420.5 846.5 420.9 845.9 421.5L837.6 437.1 833.3 429.6 837.2 422.1C837.9 421.4 837.5 420.5 836.5 419.9 835.9 419.6 834.9 419.9 834.3 420.6L831.3 426.4 825.2 417C824.9 416 823.9 416.1 823 416.4 822.7 416.7 822.4 417.4 822.4 417.7 822.4 418 822.4 418.3 822.7 418.7L828.4 428.1 821.7 428.3C820.7 428.3 820.1 429.3 820.2 429.9L820.2 429.9C820.2 430.9 820.8 431.5 821.8 431.5L830.4 431.2 834.8 438.8 817.5 439.3C816.6 439.3 815.9 440 816 440.9S816.7 442.5 817.6 442.5L836.8 442 843.8 453.3 828.8 452.1 838 464 824.6 464.4 814.6 448C813.9 447.1 812.9 447.1 812.3 447.4 811.7 447.8 811.4 448.7 811.7 449.7L820.8 464.5 812.5 464.7 807.8 457.5C807.4 456.5 806.5 456.2 805.5 456.9 804.9 457.2 804.6 458.2 804.9 459.1L808.6 464.8 797.4 465.1C796.5 465.1 795.8 465.8 795.9 466.8S796.5 468.3 797.5 468.3L808.7 468 805.7 473.9C805.3 474.2 805.4 474.5 805.4 474.8 805.4 475.5 805.7 475.8 806 476.1 807 476.7 808 476.4 808.3 475.4L812.5 467.9 821.2 467.7 812.6 483C812.6 483.3 812.6 483.6 812.7 483.9 812.7 484.5 813 484.9 813.3 485.2 814.3 485.8 815.3 485.4 815.5 484.5L824.7 467.6 838.1 467.2 829.5 479.6 844.5 477.6 838.1 489.3 818.9 489.8C817.9 489.8 817.3 490.8 817.3 491.5 817.4 492.4 818 493 819 493L836.3 492.6 832.3 500.3 823.7 500.6C822.7 500.6 822.1 501.3 822.1 502.2S822.8 503.8 823.8 503.8L830.5 503.6 825.3 513.3C825 513.7 825 514 825 514.3 825 514.6 825.3 515.3 826 515.6 826.6 515.9 827.6 515.8 827.9 514.9ZM836.1 475.6L843.2 465.5 835.6 455.8 848.1 456.7 852.6 445.4 858 456.4 870.1 454.8 863 464.9 870.7 474.7 858.5 473.7 853.7 485 848.6 474 836.1 475.6Z" fill="rgba(192, 30, 30, 0.58)"></path><path d="M518 451.9L532.1 480.6 528.2 491.5 523.4 481.9C523.2 480.7 521.9 480.5 520.8 480.7 520 481.3 519.5 482.6 520 483.3L526.3 496.8 522.7 507.7 515.3 498.9 516.5 484C516.5 484 516.4 483.6 516.4 483.6 516.3 482.8 515.3 482.2 514.5 482 513.3 482.2 512.6 482.7 512.4 484L511.7 494.7 504.3 486 506.2 454.2C506.2 454.2 506.5 453.8 506.5 453.8 506.4 453 505.4 452.4 504.6 452.1 503.3 452 502.3 453 502.5 454.1L500.6 481.8 491.2 471.4 492.1 459C492.1 459 492.1 459 492 458.6 491.8 457.9 491.3 457.1 490.4 456.9 489.3 457.1 488.2 457.8 488 459L487.6 467.3 480.8 459.6C480.2 458.5 479 458.7 478.3 459.3 477.2 459.9 477 461.2 478 462.2L484.4 469.9 476.5 469C475.3 469.2 474.2 469.9 474.4 471 474.3 472.3 474.8 473 476.1 473.2L488.5 474 497.4 484.5 469.4 482.6C468.5 482.4 467.5 483.4 467.3 484.6 467.5 485.4 468.1 486.5 469.3 486.7L501.1 488.7 508.5 497.4 497.8 496.6C496.5 496.5 495.9 497.4 495.7 498.7 495.5 499.5 496.5 500.6 497.4 500.8L512.2 501.6 520 510.2 508.6 512.5 496.4 504.2C495.5 503.6 494.3 503.8 493.7 504.8 492.9 505.3 493.3 506.9 494.2 507.5L503.1 513.5 491.7 515.8 465.4 497.7C464.4 497 463.3 497.3 462.6 498.2 462 499.1 462.2 500.3 463.2 500.9L486.2 516.8 472.9 519.4 462.6 512.5C461.6 511.8 460.4 512.1 459.8 513 459.2 513.9 459.4 515.1 460.3 515.8L467 520.6 457.2 522.5C456 522.7 455.4 523.7 455.6 524.8 455.8 526 456.8 526.6 457.9 526.4L467.7 524.5 463.3 531.1C462.7 532 462.9 533.2 463.9 533.8S466 534.2 466.6 533.3L473.2 523.4 487 520.7 471.5 543.7C470.9 544.7 471.1 545.9 472 546.5 473 547.1 474.2 546.9 474.8 545.9L492.5 519.7 503.9 517.5 497.9 526.4C497.2 527.3 497.5 528.5 498.4 529.1 499.3 529.8 500.5 529.5 501.1 528.6L509.4 516.4 520.4 514.2 516.7 524.7 503.3 531.4C502.6 532 502.1 533.3 502.6 534 503.2 535.1 504.1 535.3 505.3 535.1L514.9 530.4 511.3 540.9 482.7 555C481.6 555.6 481.3 556.5 481.6 557.7 482.2 558.8 483.4 558.9 484.2 558.8L509.5 546.5 504.8 559.7 494 565C492.8 565.3 492.6 566.5 492.9 567.7 493.4 568.4 494.8 569 495.9 568.3L502.9 564.9 499.9 574.5C499.3 575.4 499.9 576.5 501.2 577.1 502.1 577.3 503.2 576.7 503.4 575.8L506.8 566.2 510.3 573.7C511 574.8 512.2 574.9 512.9 574.4 514.1 574.1 514.3 573.3 514.2 572.5 514.1 572.1 514.1 572.1 514 571.7L508.7 560.9 513.4 547.8 525.6 572.7C525.9 573.9 527.1 574.1 528.3 573.8 529 573.3 529.3 572.4 529.1 571.6 529 571.2 529 571.2 529 571.2L515.2 542.1 518.9 531.7 523.6 541.3C524.2 542.4 525.1 542.7 526.3 542.4 527 541.9 527.6 541 527.4 540.2 527.4 539.8 527.4 539.8 527.3 539.4L520.6 526 524.3 515.5 531.6 523.9 530.8 538.7C530.7 539.9 531.7 541 532.5 541.2 533.7 541 534.8 540.4 534.6 539.2L535.4 528.4 543.1 536.7 540.8 568.9C540.6 569.8 541.6 570.8 542.4 571.1 543.6 570.8 544.7 570.2 544.9 569L546.8 541.3 555.8 551.8 554.9 563.8C554.7 565 555.7 566 556.9 565.8 557.8 566 558.9 565.4 559 564.2L559.5 555.9 566.2 563.6C566.8 564.3 568 564.4 569.1 563.8 569.5 563.4 569.7 562.5 569.5 561.7 569.5 561.7 569.5 561.3 569.4 560.9L562.6 553.3 570.8 553.7C571.7 554 572.7 552.9 573 552.1 572.9 551.7 572.9 551.7 572.9 551.7 572.7 550.5 571.7 549.9 570.9 550L558.9 549.1 549.6 538.7 577.7 540.6C578.8 540.3 579.5 539.8 579.7 538.5 579.7 538.5 579.6 538.1 579.6 538.1 579.5 537.4 578.9 536.7 577.7 536.5L545.8 534.1 538.5 525.8 549.2 526.5C550.4 526.3 551.5 525.7 551.3 524.5 551.7 524.4 551.6 524 551.6 524 551.5 523.3 550.5 522.6 549.7 522.4L534.8 521.6 527.4 512.9 538.4 510.7 550.6 518.9C551.6 519.6 553.1 519.3 553.8 518.3 554 517.5 553.8 516.3 553.2 515.6L543.9 509.7 555.3 507.4 581.6 525.1C582.5 525.8 583.7 525.5 584.3 524.6 585 523.7 584.7 522.5 583.8 521.8L560.8 506.4 574.5 503.7 584.4 510.3C585.3 511 586.5 510.7 587.1 509.8S587.5 507.7 586.6 507L580 502.6 589.9 500.7C591 500.5 591.7 499.5 591.4 498.4 591.2 497.2 590.3 496.5 589.1 496.8L579.3 498.7 583.6 491.7C583.9 491.3 584.3 490.8 584.2 490.4 584.1 490 583.6 489.3 583.1 489 582.1 488.3 581 488.6 580.3 489.5L573.8 499.8 560 502.4 575.4 479.1C575.8 478.6 576.1 478.1 576 477.7 575.9 477.3 575.4 476.6 574.9 476.3 574 475.7 572.8 475.9 572.2 476.8L554.5 503.5 543.2 505.7 549.5 496.7C549.9 496.3 549.7 495.5 549.6 495.1 549.6 494.7 549.5 494.3 549 494 548.1 493.4 546.5 493.7 546.3 494.5L537.7 506.8 526.7 508.9 530.2 498.1 543.7 491.8C544.4 491.2 545 490.3 544.9 489.5 544.8 489.1 544.8 489.1 544.4 489.2 544.2 488 542.8 487.4 541.7 488.1L532.1 492.8 535.7 481.9 564.8 468.1C565.5 467.6 565.7 466.7 565.5 465.9 565.5 465.5 565.5 465.5 565.5 465.5 564.8 464.4 563.9 463.8 562.8 464.4L537.5 476.7 542.3 463.5 553 458.2C554.1 457.5 554.4 456.7 554.2 455.9 554.2 455.9 554.1 455.5 554.1 455.5 553.5 454.4 552.3 454.2 551.5 454.4L544.1 458.3 547.5 448.6C547.4 448.2 547.4 447.9 547.3 447.5 547.2 447.1 546.7 446.4 546.2 446 544.9 445.9 543.8 446.1 543.6 447.4L540.2 457 536.7 449.5C536.1 448.4 534.8 448.3 534 448.4 532.9 449 532.8 450.3 533 451.5L538.3 462.2 534 475.3 521.8 450.4C521.1 449.3 519.8 448.7 519.1 449.3 518 449.9 517.4 450.8 518 451.9Z" fill="rgba(192, 30, 30, 0.58)"></path><path d="M67 167.2L82.6 137.9 111 129.6 104.1 158.3 75.7 175.5C75.7 175.5 75.4 175.8 75.4 175.8 74.9 176.4 74.9 177.5 75.2 178.3 75.8 179.4 77.2 179.7 78 178.8L102.8 163.7 99.5 177.7 88.7 184.5C88.7 184.5 88.4 184.8 88.4 184.8 87.8 185.3 87.9 186.5 88.2 187.3 88.8 188.4 90.2 188.7 91 187.8L98.5 183.4 96 193.6C95.7 194.5 96.6 195.9 97.5 196.1 98.6 196.7 99.7 195.5 100 194.6L102.5 184.4 107 191.9C107.6 193 109 193.3 109.8 192.4 110.9 191.8 111.2 190.4 110.3 189.6L103.5 178.7 107.1 165 122.2 189.8C122.8 190.9 124.2 191.2 125 190.3 126.1 189.7 126.4 188.3 125.5 187.5L108.4 159.1 115.2 130.3 137 150.9 137.9 184.3C137.9 185.4 138.8 186.3 139.9 186.2 141 186.2 141.9 185.3 141.8 184.2L141.1 154.8 151.5 164.7 151.8 177.2C151.9 178.3 152.7 179.1 153.9 179.1 155 179 155.8 178.2 155.8 177L155.6 168.6 163.7 176.3C164.3 177.4 165.7 177.1 166.5 176.2 167.4 175.3 167.3 174.2 166.5 173.4L158.9 166.2 167.4 166C168.5 166 169.4 165.1 169.3 164S168.4 162 167.3 162L154.8 162.4 144.4 152.4 173.8 151.7C174.9 151.6 175.8 150.8 175.7 149.6 175.7 148.5 174.8 147.7 173.7 147.7L140.3 148.6 118.9 128.2 147.2 119.8 175.6 135.2C176.8 135.8 177.9 135.2 178.7 134.3 179.3 133.1 178.7 132 177.8 131.2L152.3 117.4 166 113.4 177.2 119.6C178.4 120.1 179.5 119.6 180.3 118.7 180.8 117.5 180.2 116.4 179.7 115.9L171.9 111.8 182 108.7C182.9 108.4 184 107.3 183.4 106.2 182.8 105 181.9 104.2 180.8 104.8L170.7 107.9 174.7 100.2C175.2 99 174.7 97.9 174.1 97.3 173.2 97.1 172.1 97.1 171.5 97.7 171.5 97.7 171.3 98 171.3 98L165 109.2 151.3 113.2 165 87.7C165.6 86.5 165 85.4 164.4 84.9 163.6 84.6 162.4 84.6 161.9 85.2 161.9 85.2 161.6 85.5 161.6 85.5L146 114.8 117.6 123.2 124.5 94.4 152.9 77.2C154 76.6 154.3 75.2 153.4 74.4 152.8 73.3 151.4 73 150.5 73.9L125.8 89 129.1 75 139.9 68.3C141 67.7 141.3 66.2 140.4 65.4 139.8 64.3 138.4 64 137.6 64.9L130 69.4 132.6 59.1C132.9 58.3 132 56.9 131.1 56.6 130.3 56.3 129.4 56.6 128.9 57.2 128.6 57.5 128.3 57.8 128.3 58.4L125.8 68.6 121.3 61.1C120.7 60 119.3 59.7 118.5 60.6 118.5 60.6 118.2 60.9 118.2 60.9 117.7 61.5 117.7 62.6 118 63.5L124.8 74.3 121.5 88.3 106.4 63.5C105.8 62.4 104.4 62.1 103.6 63 103.6 63 103.3 63.3 103.3 63.3 102.7 63.9 102.8 65 103.1 65.8L120.2 94.2 113.4 123 91.9 102.6 91 69.3C91 68.1 90.1 67.3 89 67.3 87.8 67.4 87 68.2 87 69.4L87.5 98.5 77.1 88.6 76.7 76.1C76.7 75 75.8 74.2 74.7 74.2S72.8 75.1 72.8 76.2L73 84.7 65.5 77.6C64.6 76.7 63.5 76.8 62.6 77.6 61.8 78.5 61.8 79.6 62.7 80.5L70.3 87.6 61.8 87.9C61.2 87.9 60.6 87.9 60.1 88.5S59.6 89.6 59.6 90.2C59.6 91.3 60.5 92.1 61.6 92.1L74 91.8 84.5 101.7 55.1 102.5C54.5 102.5 54 102.5 53.4 103.1 53.1 103.4 52.9 104.2 52.9 104.8 52.9 105.9 53.8 106.7 54.9 106.7L88.3 105.8 109.8 126.2 81.4 134.6 52.1 118.9C51.3 118.7 50.1 118.7 49.6 119.3 49.6 119.3 49.3 119.6 49.3 119.6 48.8 120.7 49.4 121.8 50 122.4L75.5 136.2 61.7 140.2 50.5 134C49.7 133.7 48.6 133.8 48 134.3 48 134.3 47.7 134.6 47.7 134.6 47.2 135.8 47.8 136.9 48.4 137.4L56.1 141.5 46 144.6C45.7 144.9 45.2 144.9 44.9 145.2 44.3 145.7 44.1 146.6 44.4 147.4 45 148.6 45.9 149.4 47 148.8L57.1 145.7 53 153.4C52.5 154.6 53.1 155.7 53.7 156.3 54.8 156.8 55.9 156.2 56.5 155.6L62.7 144.4 76.5 140.4 62.7 165.9C62.2 167.1 62.8 168.2 63.3 168.7 65 168.7 66.4 168.4 67 167.2Z" fill="rgba(192, 30, 30, 0.58)"></path></g><defs><mask id="SvgjsMask1243"><rect width="1440" height="560" fill="#ffffff"></rect></mask><filter id="SvgjsFilter1244"><feGaussianBlur stdDeviation="1"></feGaussianBlur></filter></defs></svg>